/* XPM */
static char *_589d189d9a8470d9e482db5163eb9beOj799e0vEC3maumF[] = {
/* columns rows colors chars-per-pixel */
"100 100 22 1 ",
"  c #1FBB6F",
". c #1BBE6D",
"X c #1DBD6D",
"o c #1BBB72",
"O c #1EBB73",
"+ c #1BBD73",
"@ c #1EBC72",
"# c #1FBA75",
"$ c #1ABC77",
"% c #1FBC74",
"& c #1CBB78",
"* c #19BD78",
"= c #1FBC78",
"- c #21BB6D",
"; c #20BB71",
": c #20BA74",
"> c #8FDB67",
", c #8FDC68",
"< c #91DC63",
"1 c #91DB68",
"2 c #92DC69",
"3 c #93D86C",
/* pixels */
"@@@@@@@@@@,,,,,,,,,,,,,,,,,,,@@@@@@,,,,,,@@@@@@@@@@@@@@@@@@@@@@@@@@@@@@@@@@@@@@@@@@@@@@@@@+,,,,,,,,,",
"@@#+O@@@@O,,,,,,,,,,,,,,,,,,,@@@@@@,,,,,,@@@@@@@@@@@@@@@@@@@@@@@@@@@@@@@@@@@@@@@@@@@@@@@@@@,,,,,,,,,",
"@@@+X@@@@O,,,,,,,,,,,,,,,,,,,$##@@O,,,,,,@@@@@@@@@@@@@@@@@@@@@@@@@@@@@@@@@@@@@@@@@@@@@@@@@&,,,,,,,,,",
"@@@@@@@@@O,,,,,,,,,,,,,,,,,,,##@@@O,,,,,,@@@@@@@@@@@@@@@@@@@@@@@@@@@@@@@@@@@@@@@@@@@@@@@@@O,,,,,,,,,",
"@@@@@@@@@o,,,,,,,,,,,,,,,,,,,+%@@@o,,,,,,@@@@@@@@@@@@@@@@@@@@@@@@@@@@@@@@@@@@@@@@@@@@@@@@@+,,,,,,,,,",
"@@@@@%%OOO,,,,,,,,,,,,,,,,,,,O%%OOO,,,,,,@@@@@@@@@@@@@@@@@@@@@@@@@@@@@+@@@@@@@@@@@OOO@@@@@O,,,,,,222",
",,,,,,,,,,,,,,,,@@@@@@,,,,,,,,,,,,,@@@@@@@@@@@@@@@@@@@@@@@@O,,,,,,@@@@@@,,,,,,,,,,,,,@@@@@@@@@@@@@@@",
",,,,,,,,,,,,,,,,@@@@@@,,,,,,,,,,,,,@@@@@@@@@@@@@@@@@@@@@@@@O,,,,,,@@@@@@,,,,,,,,,,,,,@@@@@@@@@@@@@@@",
",,,,,,,,,,,,,,,,@@@@@@,,,,,,,,,,,,,@@@@@@;@@@@@@@@@@@@@@@@@O,,,,,,@@@@@O,,,,,,,,,,,,,@@@@@@@@@@@@@@@",
",,,,,,,,,,,,,,,,@@@@@@,,,,,,,,,,,,,@@@@@@@@@@@@@@@@@@@O####O,,,,,,@@@@@@,,,,,,,,,,,,,@@@@@@@@@@@@@@@",
",,,,,,,,,,,,,,,,@@@@@;,,,,,,,,,,,,,@@@@@@@@@@@@@@@@@@@@@###O,,,,,,@@@@@@,,,,,,,,,,,,,@@@@@@@@@@@O#@@",
",,,,,,,,,,,,,,,,@@@@@@,,,,,,,,,,,,,@@@@@@@@@@@@@@@@@@@@@@@@@,,,,,,@@@@@@,,,,,,,,,,,,,@@@@@@@@@@#@@@@",
",,,,,,,,,,,,,,,,@@@@@@,,,,,,,,,,,,,o@@@@@@@@@@@@@@XO@@@@@@@@,,,,,,@@+@@@,,,,,,,,,,,,,o@@@@@@@@@O@@@@",
"@@@@,,,,,,@@@@@@,,,,,,,,,,,,,@@@@@@@@@@@@@@@@@@@@@@@@@,,,,,,O@@@@O@@X@@@%@+@@@@@@@@@@@@@@@@@@@@@@,,,",
"@@@@,,,,,,@@@@@@,,,,,,,,,,,,,@@@@@@@@@@@@@@@@@@@@@@@@@,,,,,,o@OO@@@@@@@@@@@@@@@@@@@@@@@@@@@@@@@@@,,,",
"OO@@,,,,,,@@@@@@,,,,,,,,,,,,,@@@@@@@@@@@@@@@@@@@@@@@@@,,,,,,o@O@@@@@@@@@@@@@@@@@@@@@@@@@@@@@@@@@@,,,",
"OO@@,,,,,,@@@@@@,,,,,,,,,,,,,@@@@@@@@@@@@@@@@@@@@@@@@@,,,,,,+@@@@@@@@@@@@@@@@@@@@@@@@@@@@@@@@@@@@,,,",
"OO@@,,,,,,@@@@@@,,,,,,,,,,,,,@@@@@@@@@@@@@@@@@@@@@@@@@,,,,,,+@@@@@@@@@@@@@@@@@@@@@@@@@@@@@@@@@@@@,,,",
"OO@@,,,,,,@@@@@@,,,,,,,,,,,,,@@@@@@@@@@@@@@@@@@@@@@@@@,,,,,,ooOoooooooOO@@@@@@@@@@@@@oooo@@@@@@@@,,,",
"@@@@@@@@@o@@@@@@@@@@@@@@@@@@@,,,,,,o#O@@@@@@@@O,,,,,,,@@@@@@,,,,,,,,,,,,@@@@@@@@@@@#o,,,,,,,,,,,,,,,",
"@@@@@@@@@@@@@@@@@@@@@@@@@@@@@,,,,,,o#O@@@@@@@@O,,,,,,,@@@@@@,,,,,,,,,,,,@@@@@@@@@@@#o,,,,,,,,,,,,,,,",
"@@@@@@@@@@@@@@@@@@@@@@@@@@@@@,,,,,,o#O@@@@@@@@O,,,,,,,@@@@@@,,,,,,,,,,,,@@@@@@@@@@@#o,,,,,,,,,,,,,,,",
"@@@@@@@@@@@@@@@@@@@@@@@@@@@@@,,,,,,o#O@@@@@@@@O,,,,,,,@@@@@@,,,,,,,,,,,,@@@@@@@@@@@#o,,,,,,,,,,,,,,,",
"@@@@@@@@@@@@@@@@@@@@@@@@@@@@@,,,,,,o#O@@@@@@@@O,,,,,,,@@@@@@,,,,,,,,,,,,@@@@@@@@@@@#o,,,,,,,,,,,,,,,",
"O*+@@@@@@@@@@@@@@@@@@@@@@@@@@,,,,,,O@@@@O@@@@@O,,,,,,,@@@@@@,,,,,,,,,,,,@@@@@@@@@@@@O,,,,,,,,,,,,,,,",
",,,,@@@@@O,,,,,,@@@@@@,,,,,,,@@@@@@,,,,,,@@@@O@@@@@@@@,,,,,,111113@@@@@@,,,,,,,,,,,,,,,,,,,@@@@@@@@@",
",,,,@@@@@O,,,,,,@@@@@@,,,,,,,@@@@@@,,,,,,@@@@@X@@@@@@@,,,,,,111111@@@@@@,,,,,,,,,,,,,,,,,,,@@@@@@@@@",
",,,,&@@@@O,,,,,,@@@@@@,,,,,,,+####O,,,,,,@@@@@@@@@@-@@,,,,,,11111<@@@@@@,,,,,,,,,,,,,,,,,,,@@@@@@@@@",
",,,,O@@@@O,,,,,,@@@@@@,,,,,,,%####O,,,,,,@@@@@@@@@@;@@,,,,,,111112@@@@@@,,,,,,,,,,,,,,,,,,,@@@@@@@@@",
",,,,+@@@@O,,,,,,@@@@@@,,,,,,,@@@@@O,,,,,,@@@@@@@+@@;@@,,,,,,111111@@@@@@,,,,,,,,,,,,,,,,,,,@@@@@@@@@",
",,,,O@@@@O,,,,,,@@@@@@,,,,,,,@@@@@O,,,,,,@@@@@@@@@@O@@,,,,,,111111@@@@;+,,,,,,,,,,,,,,,,,,,@@@@@@@@@",
"@@@@@@@@@@@@@@@@@@@@@@,,,,,,,@@@@@@@@@@@@,,,,,,@@@@@@@@@@@@@211112,,,,,,,,,,,,,111112@@@@@@@@@@@@@@@",
"@@@@%@@@@@@@@@@@@@@@@@,,,,,,,@@@@@@@@@@@@,,,,,,@@@@@@@@@@@@@,,,,,,,,,,,,,,,,,,,,,,,,,@@@@@@@@@@@@@@@",
"@@@@#@@@@@@@@@@@@@@@@@,,,,,,,@@@@@@@@@@@@,,,,,,@@@@@@@@@@@@o,,,,,,,,,,,,,,,,,,,,,,,,,o@@@@@@@@@@@@@@",
"@@@@@@@@@@@@@@@@@@@@@@,,,,,,,O@@@@@@@@@@@,,,,,,@@@@@@@@@@@@O,,,,,,,,,,,,,,,,,,,,,,,,,o@@@@@@@@@@@OOO",
"@@@@@@@@@@@@@@@@@@@@@@,,,,,,,@@@@@@@@@@@@,,,,,,@@@@@@@@@@@@O,,,,,,,,,,,,,,,,,,,,,,,,,o@@@@@@@@@@@@@O",
"@@@@@@@@@@@@@@@@@@@@@@,,,,,,,@@@@@@@@@@@@,,,,,,@@@@@@@@@@@@@,,,,,,,,,,,,1,,,,,,,,,,,,o@@@@@@@@@@@@@@",
"@@@@@@@@@@@@@@@@@@@@@@,,,,,,,@@@@@@@@@@@@,,,,,,@@@@@@@@@@@@@,,,,,,,,,,,,1,,,,,,,,,,,,o@@@@@@@@@@@@@@",
"@@@@@@@@@@@@@@@@@@@@#%%@+O*+X@@@@@@@@@@@@,,,,,,,,,,,,,,,,,,,O@@@@#,,,,,,,,,,,,,@@@@@@@@@@@@,,,,,,,,,",
"@@@@@@@@@@@@@@@@@@@@@@@@@@@@@@@@@@@@@@@@@,,,,,,,,,,,,,,,,,,,o@@@@@,,,,,,,,,,,,,@@@@@@@@@@@@,,,,,,,,,",
"@@@@@@@@@@@@@@@@@@@@@@@@@@@@@@@@@@@@@@@@@,,,,,,,,,,,,,,,,,,,o@@@@@,,,,,,,,,,,,,@@@@@@@@@@@@,,,,,,,,,",
"@@@@@@@@@@@@@@@@@@@@@@@@@@@@@@@@@@@@@@@@@,,,,,,,,,,,,,,,,,,,o%@@@O,,,,,,,,,,,,,@@@@@@@@@@@@,,,,,,,,,",
"@@@@@@@@@@@@@@@@@@@@@@@@@@@@@@@@@@@@@@@@@,,,,,,,,,,,,,,,,,,,+%@@@@,,,,,,,,,,,,,@@@@@@@@@@@@,,,,,,,,,",
"oooo@@@@@@@@@@@@@@@@@@@@@@@@@@@@@@@@@@@@@,,,,,,,,,,,,,,,,,,,ooOooO,,,,,,,,,,,,,@@@@@@@@@@@@,,,,,,,,,",
",,,,@@@@@@@@@@@@@@@@@@@@@@@@@@@@@@@@@@@@@,,,,,,@@o@@@@,,,,,,,,,,,,@@@@@@@@@@@@@,,,,,,,,,,,,@@@@@@ooo",
",,,,O@@@@@@@@@@@@@@@@@@@@@@@@@@@@@@@@@@@@,,,,,,@@@@@@@,,,,,,,,,,,,@@@@@@@@@@@@@,,,,,,,,,,,,@@@@@@@@@",
",,,,@@@@@@@@@@@@@@@@@@@@@@@@@@@@@@@@@@@@@,,,,,,@@@##@@,,,,,,,,,,,,@@@@@@@@@@@@@,,,,,,,,,,,,@@@@@@@@@",
",,,,@@@@@@@@@@@@@@@@@@@@@@@@@@@@@@@@@@@@@,,,,,,@@@##@@,,,,,,,,,,,,@@@@@@@@@@@@@,,,,,,,,,,,,@@@@@@@@@",
",,,,@@@@@@@@@@@@@@@@@@@@@@@@@@@@@@@@@@@@@,,,,,,@@@@@@@,,,,,,,,,,,,@@@@@@@@@@@@@,,,,,,,,,,,,@@@@@@@@@",
",,,,@@@@@@@@@@@@@@@@#%%@+@@@@@@@@@@@@@@@@,,,,,,@@@@@@@,,,,,,,,,,,,@@@@@@@@@@@@@,,,,,,,,,,,,@@@@@@@@@",
"@@@@@@@@@@@@@@@@@@@@@:,,,,,,,,,,,,,,,,,,,@@@@@@,,,,,,,,,,,,,@@@@@@@@@@@@,,,,,,,,,,,,,@@@@@@@@@@@@@@@",
"@@@@@@@@@@@@@@@@@@@@@#,,,,,,,,,,,,,,,,,,,@@@@@@,,,,,,,,,,,,,@@@@@@@@@@@@,,,,,,,,,,,,,@@@@@@@@@@@@@@@",
"@@@+@@@@@@@@@@@@@@@@#@,,,,,,,,,,,,,,,,,,,@@@@@@,,,,,,,,,,,,,O@@@@@@@@@@@,,,,,,,,,,,,,@@@@@@@@@@@@@@@",
"@@.@@@@@@@@@@@@@@@@@#X,,,,,,,,,,,,,,,,,,,@@@@@@,,,,,,,,,,,,,O@@@@@@@@@@@,,,,,,,,,,,,,@@@@@@@@@@@@@@@",
"@@@@@@@@@@@@@@@@@@@@O@,,,,,,,,,,,,,,,,,,,@@@@@@,,,,,,,,,,,,,O@@@@@@@@@@@,,,,,,,,,,,,,@@@@@@@@@@@@@@@",
"@@@@@@@@@@@@@@@@@@@@@ ,,,,,,,,,,,,,,,,,,,@@@@@@,,,,,,,,,,,,,O@@@@@@@@@@@,,,,,,,,,,,,,@@@@@@@@%X@@@@@",
"@@@@@@@@@O,,,,,,,,,,,,@@@@@@@,,,,,,@@@@@@+@@@@O,,,,,,,@@@@@@@@@@@@@@@@@O,,,,,,,@@@@@@@@@@@@,,,,,,,,,",
"@@@@@@@@@@,,,,,,,,,,,,@@@@@@@,,,,,,@@@@@@@@@@@@,,,,,,,@@@@@@@@@@@@@@@@@O,,,,,,,@@@@@@@@@@@@,,,,,,,,,",
"@@@@@@@@@@,,,,,,,,,,,,@@@@@@@,,,,,,@@@@@@@@@@@@,,,,,,,@@@@@@@@@@@@@@@@@O,,,,,,,@@@@@@@@@@@@,,,,,,,,,",
"@@@@@@@@@@,,,,,,,,,,,,@@@@@@@,,,,,,@@@@@@@@@@@@,,,,,,,@@@@@@@@@@@@@@@@#X,,,,,,,@@@@@@@@@@@@,,,,,,,,,",
"@@@@@@@@@@,,,,,,,,,,,,@@@@@@@,,,,,,@@@@@@@@@@@@,,,,,,,@@@@@@@@@@@@@@@@#@,,,,,,,@@@@@@@@@@@@,,,,,,,,,",
"@@@@@@@@@@,,,,,,,,,,,,@@@@@@@,,,,,,@@@@@@@@@@@@,,,,,,,@@@@@@@@@@@@@@@@X#,,,,,,,@@@@@@@@@@@@,,,,,,,,,",
"@@@@@@@@@@,,,,,,,,,,,,@@@@@@@,,,,,,@@@@@@@@@@@@,,,,,,,@@@@@@@@@@@@@@@@@:,,,,,,,@@@@@@@@@@@@,,,,,,,,,",
",,,,,,,,,,@@@@@@,,,,,,,,,,,,,,,,,,,,,,,,,,,,,,,@@@@@@@@@@@@@@@@@@@@@@@#%%@@@@@@,,,,,,@@@@@@.@&O@@@@@",
",,,,,,,,,,@@@@@@,,,,,,,,,,,,,,,,,,,,,,,,,,,,,,,@@@@@@@@@@@@@@@@@@@@@@@@@@@@@@@@,,,,,,o#O@@@@@@@@@@@@",
",,,,,,,,,,@@@@@@,,,,,,,,,,,,,,,,,,,,,,,,,,,,,,,@@@@@@@@@@@@@@@@@@@@@@@@@@@@@@@@,,,,,,o#O@@@@@@@@@@@@",
",,,,,,,,,,@@@@@@,,,,,,,,,,,,,,,,,,,,,,,,,,,,,,,@@@@@@@@@@@@@@@@@@@@@@@OOO@@@@@@,,,,,,o#O@@@@@@@@@@@@",
",,,,,,,,,,@@@@@@,,,,,,,,,,,,,,,,,,,,,,,,,,,,,,,@@@@@@@@@@@@@@@@@@@@@@@@@@@@@@@@,,,,,,o#O@@@@@@@@@@@@",
",,,,,,,,,,@@@@@@,,,,,,,,,,,,,,,,,,,,,,,,,,,,,,,@@@@@@@@@@@@@@@@@@@OOOOooo@@@@@@,,,,,,o#O@@@@@@@@@@@@",
",,,,,,,,,,o#O@@@@@@Oooo@@@@@@,,,,,,ooOoooooooOO@@@@@@@@@@@@@@@@@@O,,,,,,,,,,,,,Oooooo@@@@@@@@@@@@@@@",
",,,,,,,,,,o#O@@@@@@@@@@@@@@@@,,,,,,+%@@@@@@@@@@@@@@@@@@@@@@@@@@@@O,,,,,,,,,,,,,@@@@@@@@@@@@@@@@@@@@@",
",,,,,,,,,,o#O@@@@@@@OOO@@@@@@,,,,,,o%@@@OOOOO@@@@@@@@@@@@@@@@@@@@O,,,,,,,,,,,,,@OOOOO@@@@@@@@@@@@@@@",
",,,,,,,,,,o#O@@@@@@@@@@@@@@@@,,,,,,o#OO@@@@@@@@@@@@@@@@@@@@@@@@@@O,,,,,,,,,,,,,@@@@@@@@@@@@@@@@@@@@@",
",,,,,,,,,,o#@@@@@@@@@@@@@@@@@,,,,,,o#OO@@@@@@@@@@@@@@@@@@@@@@@@@@O,,,,,,,,,,,,,@@@@@@@@@@@@@@@@@@@@@",
",,,,,,,,,,O@@@@@@@@@#%%@@@@@@,,,,,,O@@@@@@@@@@@@@@@XO#O@@@@@@@@@@#,,,,,,,,,,,,,@@@@@@@@@@@@@@@@@@@@@",
"@@@@@@@@@@@@@@@@@@@@@@,,,,,,,@@@@@@O@@@@@@@@@@@@@@@@@@,,,,,,,,,,,,,,,,,,@@@@@@@@@@@@@@@@@@@@@@@@@@@@",
"@@@@@@@@@@@@@@@@@@@@@@,,,,,,,@@@@@@@@@@@@@@@@@@@@@@@@@,,,,,,,,,,,,,,,,,,@@@@@@@@@@@@@@@@@@@@@@@@@@@@",
"@@@@@@@@@@@@@@@@@@@@@@,,,,,,,@@@@@@@@@@@@@@@@@@@@@@@@@,,,,,,,,,,,,,,,,,,@@@@@@@@@@@@@@@@@@@@@@@@@@@@",
"@@@@@@@@@@@@@@@@@@@@@@,,,,,,,@@@@@@@@@@@@@@@@@@@@@@@@@,,,,,,,,,,,,,,,,,,@@@@@@@@@@@@@@@@@@@@@@@@@@@@",
"@@@@@@@@@@@@@@@@@@@@@@,,,,,,,@@@@@@@@@@@@@@@@@@@@@@@@@,,,,,,,,,,,,,,,,,,@@@@@@@@@@@@@@@@@@#@@:%@@@@@",
"@@@@@@@@@@@@@@@@@@@@@@,,,,,,,@@@@@@@@@@@@@@@@@@@@@@@@@,,,,,,,,,,,,,,,,,,@@@@@@@@@@@@@@@@@@%:=%X@@@@@",
"@@@@@@@@@@@@@@@@@@@@@@@@@@@@@@@@@@@@@@@@@@@@@O@,,,,,,,@@@@@@@@@@@@,,,,,,@@@@@@@@@@@@@@@@@@+,,,,,,,,,",
"@@@@@@@@@@@@@@@@@@@@@@@@@@@@@@@@@@@@@@@@@@@@@@@,,,,,,,@@@@@@@@@@@@,,,,,,@@@@@@@@@@@@@@@@@@@,,,,,,,,,",
"@@@@@@@@@@@@@@@@@@@@@@@@@@@@@@@@@@@@@@@@@@@@@@@,,,,,,,@@@@@@@@@@@@,,,,,,@@@@@@@@@@@@@@@@@@@,,,,,,,,,",
"@@@@@@@@@@@@@@@@@@@@@@@@@@@@@@@@@@@@@@@@@@@@@@@,,,,,,,@@@@@@@@@@@@,,,,,,@@@@@@@@@@@@@@@@@@@,,,,,,,,,",
"@@@@@@@@@@@@@@@@@@@@@@@@@@@@@@@@@@@@@@@@@@@@@@@,,,,,,,@@@@@@@@@@@@,,,,,,@@@@@@@@@@@@@@@@@@@,,,,,,,,,",
"@@@@@@@@@@@@@@@@@@@@@@@@@@@@@@@@@@@@@@@@@@@@@@@,,,,,,,@@@@@@@@@@@@,,,,,,@@@@@@@@@@@@@@@@@@@,,,,,,,,,",
"@@@@@@@@@@@@@@@@@@@@O@@@@@@@@@@@@@@@@@@@@@@@@@@,,,,,,,@@@@@O@@@@@@,,,,,,@@@@@@@@@@@@O@@@@@@,,,,,,,,,",
"@@@@,,,,,,O@@@@@@@@@@O,,,,,,2211111@@@@@@,,,,,,,,,,,,,@@@@@@,,,,,,@@@@@@,,,,,,,@@@@@@,,,,,,@@@@@@@@@",
"@@@@,,,,,,o#O@@@@@@@@O,,,,,,1111112@@@@@@,,,,,,,,,,,,,@@@@@@,,,,,,@@@@@@,,,,,,,@@@@@@,,,,,,@@@@@@@@@",
"@@@@,,,,,,o#O@@@@@@@@O,,,,,,1111112@@@@@@,,,,,,,,,,,,,@@@@@@,,,,,,@@@@@@,,,,,,,@@@@@@,,,,,,@@@@@@@@@",
"@@@@,,,,,,o#O@@@@@@@@O,,,,,,1111212@@@@@@,,,,,,,,,,,,,@@@@@@,,,,,,@@@@@@,,,,,,,@@@@@@,,,,,,@@@@@@@@@",
"@@@@,,,,,,o#O@@@@@@@@O,,,,,,1111112@@@@@@,,,,,,,,,,,,,@@@@@@,,,,,,@@@@@@,,,,,,,@@@@@@,,,,,,@@@@@@@@@",
"@@@@,,,,,,o#O@@@@@@@@O,,,,,,,222222@@@@@@,,,,,,,,,,,,,@@@@@@,,,,,,@@@@@@,,,,,,,@@@@@@,,,,,,@@@@@@@@@",
"@@@OOooooo@@@@@@@@@@@O,,,,,,,Ooo+oo222222@@@@@@,,,,,,,,,,,,,@@@@@@,,,,,,,,,,,,,@@@@@@@@@@@@O@@@@@@@@",
"@@@@@@@@@@@@@@@@@@@@@O,,,,,,,@@@@%o211111@@@@@@,,,,,,,,,,,,,@@@@@@,,,,,,,,,,,,,@@@@@@@@@@@@@@@@@@@@@",
"@@@@@OOOOO@@@@@@@@@@@O,,,,,,,@@@@#O211111@@@@@@,,,,,,,,,,,,,@@@@@@,,,,,,,,,,,,,@@@@@@@@@@@@@@@@@@@@@",
"@@@@@@@@@@@@@@@@@@@@@O,,,,,,,@@@@#O211111@@@@@@,,,,,,,,,,,,,@@@@@@,,,,,,,,,,,,,@@@@@@@@@@@@@@@@@@@@@",
"@@@@@@@@@@@@@@@@@@@@@O,,,,,,,@@@@%O211111@@@@@@,,,,,,,,,,,,,@@@@@@,,,,,,,,,,,,,@@@@@@@@@@@@@@@@@@@@@",
"@XO#O@@@@@@@@@@@@@@@@O,,,,,,,@@@@#o21111>@@@@@@,,,,,,,,,,,,,@@@@@@,,,,,,,,,,,,,@@@@@@@@@@@@#O@@@@@@@"
};
