/* XPM */
static char *_f24fc2c8a694cb9abf0e59e3b3e1ec3m6IJ9hgGQWZOOoDL[] = {
/* columns rows colors chars-per-pixel */
"100 100 12 1 ",
"  c None",
". c #625143",
"X c #7C5B41",
"o c #8B6945",
"O c #9E7149",
"+ c #AC843F",
"@ c #9B827D",
"# c #D0B058",
"$ c #D09664",
"% c #DCC36E",
"& c #BBACA4",
"* c #E7D8C7",
/* pixels */
"                                       $$$$$$$$$$$$$$$$$$OOOO                                       ",
"                                    $$$$$$$$$$$$$$$$$$$$$$$OOOOO                                    ",
"                                $$$$$$$$$$$$$$$$$$$$$$$$$$$$$$$$OOOO                                ",
"                            $$$$$$$$$$$$$$$$$$$$$$$$$$$$$$$$$$$$$$$OOOOO                            ",
"                            $$$$$$$$$$$$$$$$$$$$$$$$$$$$$$$$$$$$$$$OOOOO                            ",
"                          $$$$$$$$$$$$$$$$$$$$$$$$$$$$$OO$$$$$$$$$$$$$$$OO                          ",
"                       $$$$$$$$$$$$$$$$OOOOO$OO$$$$$$$$$$OO$$$$$$$$$$$$$$OOOO                       ",
"                      $$$$$$$$$$$OOOOOO$$$$$$$$$$$$$$$$$$$$OOOO$$$$OO$$$$$OOOO                      ",
"                    $$$$$$$$$$OOOOO$$$$$$$$$$$$$$$$$$$$$O$$$OOOOO$$$$$OOO$$$$OOO                    ",
"                   $$$$$$$$OOO$$$$$$$$$$$$$$$OOOOOOOOOOO$$$$$OOOXOOO$$$$$OOOO$$$O                   ",
"                  $$$$$$$$O$$$$$$$$$$OOOOOOOO$$$$OOOOOOOOOOO$$$$OXXXOO$$$$$$OOOO$O                  ",
"                  $$$$$$$$O$$$$$$$$$$OOOOOOOO$$$$OOOOOOOOOOO$$$$OXXXOO$$$$$$OOOO$O                  ",
"                $$$$$$$$$$$$$$$$$OOOOOOOOOOOOOOOOOOOOOOOOOOOOOOO$$$OXOOOO$$$$$OOOOOO                ",
"               $$$$$$$$$$$$$$$OOOOOOOOOOXXXXXOOOOOOOOOOOOOOXOOOOOOO$XXOOXOOO$$$$OXOOO               ",
"               $$$$$$$$$$$OOOOOOOOOXXOOOOOOOOOOOOOOOOOOOOOOOXXXXOOOOOXXXOXXXOO$$$OXXO               ",
"               $$$$$$$$OOOOOOOOOXXXOOOOOOOOOOXXXXXXXXXXXOOOOOOOOXXXOOOXXXOOOXXOO$$XXX               ",
"               $$$$$OOOOOOOOOOXXOOOOOOOOXXXXX++o+##%#++oXXXXOOOOOOOXXO$$XXXXXXOO$OOOX               ",
"               $$$$OOOOOOOOXXXOOOOOOXXXX#%%#+++o+##%#++o+%%+XXXXOOOOOXOO$OOOOO$$OOOOX               ",
"               $$$$OOOOOOOOXXXOOOOOOXXXX#%%#+++o+##%#++o+%%+XXXXOOOOOXOO$OOOOO$$OOOOX               ",
"               $$$OOOOOOOOXOOOOOXXXX+oo+#%%#+++o+##%#++o+##+o...XXXXOOXXOO$$$$OOOOXXX               ",
"               $OOOOOOOXXXOOOOXX+%%#+oo+#%%#+++o+####++o+##+o.......XXOOXOOOOOOOOXXXX               ",
"               OOOOOOOXXOOOXXXoo%##++oo+#%%#+++o+##%#++o+##+o.........XXXXOOOOXXXXXXX               ",
"               XOOOOXXXOOOXo##o+###++oo+#%%#+++o+####++o+##+o............XXXXXXXXXXX$               ",
"               $XXXXXXXXXXo+##o+###++oo+#%%#+++o+###+##o+##+o.............OO$$$$$$$$$               ",
"               $$$$$$$$$OO+#++o+###++oo+#%%#+++oo+++%++o+##+o.............OOO$OO$$$$O               ",
"               $$$$$$$$$OO+#++o+###++oo+#%%#+++oo+++%++o+##+o.............OOO$OO$$$$O               ",
"               O$$$O$$$OXX++++o+###++oo+####+++o#%%%#++o+##+o.............XXOOXXOOOOO               ",
"               OOOOXOOOOXX%+++o+###++oo+####+++o+####++o+##+o.............XXOOXXOOOOO               ",
"               OOOOXOOOOXX#+++o+###++oo+#%%#+++o+####++o+##+o.............XXOOXXOOOOO               ",
"               OOOOXOOOOXX#+++o+###++oo+####+++o+####++o+##+o.............XXOOXXOOOOO               ",
"               OOOOXOOOOXX#+++o+###++oo+####+++o+####++o+##%o.............XXOOOOOOOOO               ",
"               OOOOXOOOOXX#+++o+###++oo+####+++o+####++o+%%#o.............XXOOOOOOOOO               ",
"               OOOOXOOOOXX#+++o+###++oo+####+++o+####++o+%%#o.............XXOOOOOOOOO               ",
"               XOOOXOOOOXX#+++o+###++oo+####+++o+####++o&##oo.............XXOOXXOOOOO               ",
"               XOOOXOOOOXX#+++o+###++oo+####+++o+####oo&@+++o.............XXOOXXOOOOO               ",
"               XOOOXOOOOXX#+++o+###++oo+####+++o+####&&@+oo+o.............XXOOXXOOOOO               ",
"               XOOOXOOOOXX#+++o+###++oo+####+++o+###%&&&*&&+o.............XXOOXXOOOOO               ",
"               XOOOXOOOOOOX+++o+###++oo+####+++o+%%%#@@*@&&*o.............XXOOXXOOOOO               ",
"               XOOOXOOO$OOX+++o+###++oo+####+++o%###+oo&*@@&*.............XXOOXXOOOOX               ",
"               XOOOXOOO$OOX+++o+###++oo+####+++o%###+oo&*@@&*.............XXOOXXOOOOX               ",
"               XOOOXOO$OOOX+++o+###++oo+####+%%%#+++o++@*..@*.............XXOOXXOOOOX               ",
"               XOOOOOOOOOOX+++o+###++oo+####%###+ooo+++.&..@&.............XXOOXXOOOOX               ",
"               XOOOXOOOOOOX+++o+###++oo+#%%%#+++o+++#++o*@@*&............XOOXOXXOOOOX               ",
"               XOOOXOOOOOOX+++o+###++oo+%###+oooo####++o&**&o............XOO$XXXXOOOX               ",
"                OOOXOOOOOOX+++o+###++%%%#+++ooo.+####++o@&&+o............XOOO$$$OOOOX               ",
"                OOOXOOOOOOX+++o+###+%###+oooooo.+####++oo+++o............XOOOOOOOOOOX               ",
"                OOOXOOOOOOX+++o+###+%###+oooooo.+####++oo+++o............XOOOOOOOOOOX               ",
"                OOOXOOOOOOX+++o+#%%%#+++o++++++o+####++o++++o............XOOOOOOOOOOX               ",
"                OOOXOOOOOOX+++o+%###+ooo+###+++o+####++o+##+o............XOOOOOOOOOOX               ",
"                OOOOOOOOOOX+++o%#+++o..o+###+++o+####++o+##+o............XOOOXOOOOOOX               ",
"                OOOOOOOOOOX+++%#+oooo..o+###+++o+####++o+##+o............XOOOXOOOOOO                ",
"                OOOOOOOOOOX%%%#+o++oooo++###+++o+####++o+##+o............XOOOXOOOOOO                ",
"                OOOOOOOOOOX###+o+##++oo++###+++o+####++o+##+o............XOOXOOOOOOO                ",
"                OOOOOOOOOOX+++o+###++oo++###+++o+####++o+##+o............XOOXOOOOOOO                ",
"                OOOOOOOOOOX+++o+###++oo++###+++o+####++o+##+o............XOOXOOOOOOO                ",
"                XXOOOOOOOOXooo.+###++oo++###+++o+####++o++++o............XOOXOOOOXOO                ",
"                XXOOOOOOOOXooo.+###++oo++###+++o+####++o++++o............XOOOOOOOXOO                ",
"                XXOOOOOOOOX+ooo+###++oo++###+++o+####++o++++o............XOOOOOOOXOO                ",
"                XXOOOOOOOOX+++o+###++oo++###+++o+####++o++++o............XOOXOOOOXOO                ",
"                XXOOOOOOOOXX++o+###++oo++###+++o+####++o+%%+o............XOOXOOOOXOO                ",
"                XXOOOOOOXXXX++o+###++oo++###+++o+####++o%##oo............XOOOOOOOXOO                ",
"                XXOOOOOOXXXX++o+###++oo++###+++o+####++o%##oo............XOOOOOOOXOO                ",
"                XXOOOOOXXXOX++o+###+ooo++###+++o+####++%#++oo............XXXOOOOOXOO                ",
"                XXOOOOXOOOOX++o+###+ooo++###+++o+####%%#+oo+o............XXXOOOOOXOO                ",
"                XXOOOOO$OOOX++o+###o+oo++###+++o+###%##+o+++o............XXXOOOOOXOO                ",
"                XXOOOO$OOOOX++o+#++++oo++###+++o+%%%#++oo+++.............XXXOOOOOXOO                ",
"                  OOOOOOXXOX++oo+%%++oo++###+++o%###+oo.+++o.............XXXOOOOOXOO                ",
"                  OOOOOOXXOX++o+%##++oo++###+%%%#+++ooo.+++o.............XXXOOOOOXOO                ",
"                  OOOOOOXXOX++o+%##++oo++###+%%%#+++ooo.+++o.............XXXOOOOOXOO                ",
"                  OOOOOOXXOX++o+###++oo++###%###+ooo+++o+++o.............XXXOOOOOXOO                ",
"                  OOOOOOXXOX++o+###++oo+#%%%#+++o+++#++o+++o.............XOOOOOOOXOO                ",
"                  OOOOOOXXOX++o+###++oo+%###+oooo####++o+++o.............XOOOOOOOOOO                ",
"                  OOOOOOXXOX++o+###++%%%#+++ooo.+####++o+++o.............XOOOOOOOOXX                ",
"                  OOOOOOXXOX++o+###+%###+oooooo.+####++o+++o.............XOOOOOOOOXX                ",
"                  OOOOOOXXOX++o+#%%%#+++o++++++o+####++o+oo..............XOOOOOOOOXX                ",
"                  OOOOOOXXOX++o+#%%%#+++o++++++o+####++o+oo..............XOOOOOOOOXX                ",
"                  XOOOOOXXOX++o+%###+ooo+###+++o+####++o+oo.............X$OOOOOOOOXX                ",
"                  XOOOOOXXOX++o%#+++o..o####+++o+####++oo...............XO$$OOOOOOXX                ",
"                  XOOOOOXXOX++%#+oooo..o####+++o+++#+++o................XOOOOOOOOOXX                ",
"                  XOOOXOOOXX%%#+o++oooo+####+++o+++#+oo.................XOOOOOOOXOXX                ",
"                  XOOOXOOOXX##+o+##++oo+####+++o+++++...................XOOOOOOOXOXX                ",
"                  XOOOXOOOXOXXo+###++oo+####+++o+oo+....................XOOOOOOOXOXX                ",
"                  XOOOXOOOXOXXo+###++oo+####+++o+oo+....................XOOOOOOOXOXX                ",
"                  XOOOXOOOXOXX.####++oo++###+oooo.......................XOOOOOOOOX                  ",
"                  XOOOXOOOXOXX.####++oo++###+oo.........................XOOOOOOOOX                  ",
"                  XOOOOXOOXOXXo####++oo++++#+...........................XOOOOXOOOX                  ",
"                  XOOOOXOOXOXXo####++oo+++++............................XOOOOXOOOX                  ",
"                  XOOOOXOOXOXXo####++ooo+.......XXXXXXXXXXXX............XOOOOXOOOX                  ",
"                   XOOOXOOOXXXo+###+o.......XXXXXXXXXXXXXXXXXXX.........XOOOOXOOOX                  ",
"                   XOOOXOOOXXXo+###+o.......XXXXXXXXXXXXXXXXXXX.........XOOOOXOOOX                  ",
"                   XOOOOOOOXXXo+###+o....XXXXXXXXXXXX.......XXXXX.......XOOOOXOOXX                  ",
"                   XOOOXOOOXXXo++++o....XXXXXXXXXXXXXXXXXXXXXXXXXXXX....XOOOOXOOXX                  ",
"                   XOOOXOOXXXX.++oo....XXXXXXXXX.......XXXXXX.......XX..XOOOOXOOXX                  ",
"                   XOOOXOOXXXX.+o...XXXXXXXXXXXXXXXXXXXXXXXXXXXXXXXX....XOXXOOXXXX                  ",
"                   XOOXXOOXXXX.o...........XXXXXXXXXXXXXXXXXXXX.........XOXXOOXXXX                  ",
"                   XXXXXOOXXXX.....XXXXXXXXXXXXXXXXXXXXXXXXXXXXXXXX.....XXXXOXXXX.                  ",
"                   XXXXXOOXXXX.....XXXXXXXXXXXXXXXXXXXXXXXXXXXXXXXX.....XXXXOXXXX.                  ",
"                   XXXX.XXXX...XXXXXXXXXXXXXXXXX........XXXXXXXXXXXXXX..XXXXOX..X.                  ",
"                   .XXX.XXX...............................................OOXX....                  ",
"                   .......................................................XXX.....                  "
};
