/* XPM */
static char *_6625b4b123748778ccd91fb900bac222sGJyRjbXyGYiZbr[] = {
/* columns rows colors chars-per-pixel */
"100 100 26 1 ",
"  c None",
". c black",
"X c #020202",
"o c #030202",
"O c #040403",
"+ c #090807",
"@ c #03040B",
"# c #0C0B09",
"$ c #0A0A0C",
"% c #0E0D0C",
"& c #0F0D0C",
"* c #050817",
"= c #060817",
"- c #070A1B",
"; c #060A1C",
": c #070A1C",
"> c #161412",
", c #171412",
"< c #181613",
"1 c #191614",
"2 c #1F1C18",
"3 c #3043BE",
"4 c #3A4BBE",
"5 c #3246C7",
"6 c #FEE5C8",
"7 c #FFE6C9",
/* pixels */
"                                                                                                    ",
"                                                                                                    ",
"                     ................................................                               ",
"                   .....................................................                            ",
"                   .........................................................                        ",
"               ..............................................................                       ",
"          .........................................................................                 ",
"          .........................................................................                 ",
"        ............................................................................                ",
"        ............................................................................                ",
"        .............................................................................               ",
"       ..............................................................................               ",
"  .........................................................................................         ",
"  .........................................................................................         ",
"  .........................................................................................         ",
"  .........................................................................................         ",
"  .........................................................................................         ",
"  .........................................................................................         ",
"  .........................................................................................         ",
"  .........................................................................................         ",
"  .........................................................................................         ",
"  .........................................................................................         ",
"  .....7777777777777777777777777777777777777777777777777777777777777777777777..............         ",
"  .....7777777777777777777777777777777777777777777777777777777777777777777777...............        ",
"  .....7777777777777777777777777777777777777777777777777777777777777777777777...............        ",
"  .....7777777777777777777777777777777777777777777777777777777777777777777777...............        ",
"  .....7777777777777777777777777777777777777777777777777777777777777777777777...............        ",
"  .....7777777777777777777777777777777777777777777777777777777777777777777777...............        ",
"  .....77777777777777777,,,,,277777777777777777<,,,,1777777777777777777777777........7777777        ",
"  .....77777777777777777.....+77777777777777777......777777777777777777777777........7777777        ",
"  .....77777777777777777.....+77777777777777777......777777777777777777777777........7777777        ",
"  .....77777777777777777.....+77777777777777777......777777777777777777777777........7777777        ",
"  .....77777777777777777.....+77777777777777777......777777777777777777777777........7777777        ",
"  .....7777777777777777777777777777777777777777777777777777777777777777777777........7777777        ",
"  .....7777777777777777777777777777777777777777777777777777777777777777777777........7777777        ",
"  .....7777777777777777777777777777777777777777777777777777777777777777777777........7777777        ",
"  .....7777777777777777777777777777777777777777777777777777777777777777777777........7777777        ",
"  .....7777777777777777777777777777777777777777777777777777777777777777777777........7777777        ",
"  .....7777777777777777777777777777777777777777777777777777777777777777777777........7777777        ",
"  .....77777777777777777777777777777777777777777777777777777777777777777777777777777........        ",
"  .....77777777777777777777777777777777777777777777777777777777777777777777777777777........        ",
"  .....77777777777777777777777777777777777777777777777777777777777777777777777777777........        ",
"   ....77777777777777777777777777777777777777777777777777777777777777777777777777777.....           ",
"   .....7777777777777777777777777777777777777777777777777777777777777777777777777777.....           ",
"       ........777777777777777777777777777777777777777777777777777777777777777777777.....           ",
"        .OOOOO.77777777777777777777777777777777777777777777777777777777777777....OOO.               ",
"        .......77777777777777777777777777777777777777777777777777777777777777........               ",
"           ....77777777777777777777777777777777777777777777777777777777777777....                   ",
"           ....77777777777777777777777777777777777777777777777777777777777777....                   ",
"           ......7777777777777777777777777777777777777777777777777777777777......                   ",
"                ............................................................                        ",
"                ............................................................                        ",
"                ............................................................                        ",
"                ............................................................                        ",
"                ............................................................                        ",
"              ................................................................                      ",
"              ;55555555555555555555555555555555555555555555555555555555555555.                      ",
"              ;55555555555555555555555555555555555555555555555555555555555555.                      ",
"              ;55555555555555555555555555555555555555555555555555555555555555.                      ",
"              -55555555555555555555555555555555555555555555555555555555555555.                      ",
"        .*****..5555555555555555555555555555555555555555555555555555555555555.******                ",
"        5555555.55555555555555555555555555555555555555555555555555555........5555555                ",
"        5555555........5555555555555555555555555555555555555555555555........5555555                ",
"        5555555........5555555555555555555555555555555555555555555555........5555555                ",
"        5555555........5555555555555555555555555555555555555555555555........5555555                ",
"        5555555........5555555555555555555555555555555555555555555555........5555555                ",
"        5555555........5555555555555555555555555555555555555555555555........5555555                ",
"        5555555........5555555555555555555555555555555555555555555555........5555553                ",
"        5555555.@......5555555555555555555555555555555555555555555555........5555553                ",
"        5555555.@......5555555555555555555555555555555555555555555555........5555553                ",
"        5555555.@......5555555555555555555555555555555555555555555555........5555553                ",
"        5555555.@......5555555555555555555555555555555555555555555555........5555554                ",
"        77777777$......5555555555555555555555555555555555555555555555.......77777777                ",
"        77777777%......5555555555555555555555555555555555555555555555.......77777777                ",
"        77777777%......5555555555555555555555555555555555555555555555.......77777777                ",
"        77777777%......5555555555555555555555555555555555555555555555.......77777777                ",
"        77777777%......5555555555555555555555555555555555555555555555.......77777777                ",
"                #......5555555555555555555555555555555555555555555555.......                        ",
"                .......5555555555555555555555555555555555555555555555.......                        ",
"                .......5555555555555555555555555555555555555555555555.......                        ",
"                .......5555555555555555555555555555555555555555555555.......                        ",
"                .......5555555555555555555555555555555555555555555555.......                        ",
"                .......5555555555555555555555555555555555555555555555.......                        ",
"                .......5555555555555555555555555555555555555555555555.......                        ",
"                ............................................................                        ",
"                ............................................................                        ",
"                ............................................................                        ",
"                ............................................................                        ",
"                ............................................................                        ",
"                ............................................................                        ",
"                ............................................................                        ",
"                ............................................................                        ",
"                ............................................................                        ",
"                ...............                            .................                        ",
"                ...............                            .................                        ",
"                ...............                            .................                        ",
"                ...............                            .................                        ",
"                ...............                            .................                        ",
"                ...............                            .................                        ",
"                ...............                            .................                        "
};
